<svg width="1000" height="1000" viewBox="0 0 1000 1000" fill="none" xmlns="http://www.w3.org/2000/svg">
<rect width="1000" height="1000" fill="white"/>
<g clip-path="url(#clip0_1166_36)">
<path d="M480.375 231V769H535.98V231" fill="black"/>
<path d="M784.773 231L588.845 497.736L587.098 500.14L784.574 769H853.802L656.286 500.14L854 231" fill="black"/>
<path d="M145 231V284.884C262.564 284.884 358.244 381.355 358.244 499.98C358.244 618.605 262.564 715.076 145 715.076V768.96C292.035 768.96 411.664 648.292 411.664 499.98C411.664 351.668 292.035 231 145 231Z" fill="black"/>
<path d="M655.332 471.936H145V528.023H655.332V471.936Z" fill="black"/>
</g>
<defs>
<clipPath id="clip0_1166_36">
<rect width="709" height="538" fill="white" transform="translate(145 231)"/>
</clipPath>
</defs>
</svg>
